<svg width="80" height="80" viewBox="0 0 80 80" fill="none" xmlns="http://www.w3.org/2000/svg">
<path fill-rule="evenodd" clip-rule="evenodd" d="M12.6172 59.1963C12.8803 59.1971 12.881 59.1964 13.1494 59.1973C13.805 59.2001 14.4607 59.2079 15.1162 59.2148C16.5819 59.2259 18.0476 59.2367 19.5577 59.248V69.9355C17.3592 69.9521 17.3591 69.9519 15.1162 69.9688C14.6538 69.9736 14.1913 69.9784 13.7149 69.9834C13.3491 69.985 12.983 69.9862 12.6172 69.9873C12.4753 69.9894 12.4752 69.9891 12.3301 69.9912C12.0501 69.9951 11.7703 69.9963 11.4903 69.9961C11.3325 69.9973 11.1743 69.9978 11.0118 69.999C10.6077 69.9348 10.6071 69.9352 10.2891 69.7227C9.99604 69.2867 10.0053 68.9896 10.0039 68.4658C10.003 68.3728 10.002 68.2794 10.001 68.1836C9.99866 67.8769 10.0002 67.5704 10.002 67.2637C10.0016 67.0502 10.0017 66.8365 10.001 66.623C10.0002 66.1756 10.0014 65.7277 10.0039 65.2803C10.007 64.7071 10.0052 64.1337 10.002 63.5605C10.0001 63.1198 10.0006 62.6791 10.002 62.2383C10.0023 62.0269 10.0013 61.8149 10 61.6035C9.99868 61.3082 10.001 61.0131 10.0039 60.7178C10.0044 60.5497 10.0045 60.3812 10.0049 60.208C10.0727 59.7826 10.073 59.7823 10.2891 59.4609C10.7112 59.1789 10.9842 59.1837 11.4903 59.1875C11.5789 59.1874 11.6675 59.1876 11.7588 59.1875C12.045 59.1879 12.331 59.1921 12.6172 59.1963ZM68.9825 59.1846C69.3862 59.2488 69.3865 59.2487 69.7041 59.4609C69.9973 59.8971 69.9889 60.1948 69.9903 60.7188C69.9912 60.8116 69.9913 60.9044 69.9922 61C69.9946 61.3068 69.9931 61.6141 69.9912 61.9209C69.9916 62.1344 69.9925 62.348 69.9932 62.5615C69.994 63.0088 69.9928 63.456 69.9903 63.9033C69.9872 64.4765 69.989 65.0498 69.9922 65.623C69.9942 66.064 69.9936 66.5053 69.9922 66.9463C69.9919 67.1575 69.992 67.3688 69.9932 67.5801C69.9946 67.8756 69.9932 68.1713 69.9903 68.4668C69.9898 68.6347 69.9888 68.8026 69.9883 68.9756C69.9205 69.4014 69.9205 69.4018 69.7041 69.7236C69.2822 70.0055 69.0099 69.9999 68.5039 69.9961C68.371 69.9962 68.3708 69.997 68.2354 69.9971C67.9491 69.9967 67.6623 69.9925 67.376 69.9883C67.2007 69.9877 67.0254 69.9869 66.8448 69.9863C66.1892 69.9835 65.5335 69.9756 64.878 69.9688C62.6793 69.9522 62.6787 69.9524 60.4356 69.9355V59.249C61.9014 59.238 63.3678 59.2272 64.878 59.2158C65.3403 59.211 65.803 59.2062 66.2793 59.2012C66.6449 59.1996 67.0104 59.1974 67.376 59.1963C67.5183 59.1942 67.5189 59.1945 67.6641 59.1924C67.9441 59.1885 68.2239 59.1883 68.5039 59.1885C68.6618 59.1873 68.8199 59.1858 68.9825 59.1846ZM45.4151 38.8916C45.8831 38.8949 46.1926 38.8983 46.6104 39.1211C47.0639 39.6257 46.9636 40.2673 46.9629 40.9043C46.9633 41.024 46.9635 41.1442 46.9639 41.2676C46.9651 41.6708 46.9647 42.0743 46.9649 42.4775C46.9655 42.7659 46.9661 43.0544 46.9668 43.3428C46.9686 44.1276 46.9701 44.9124 46.9707 45.6973C46.9711 46.1874 46.9711 46.6779 46.9717 47.168C46.9735 48.7004 46.9751 50.2332 46.9756 51.7656C46.9762 53.5361 46.9786 55.3066 46.9825 57.0771C46.9853 58.4448 46.9872 59.813 46.9873 61.1807C46.9875 61.998 46.9879 62.8155 46.9903 63.6328C46.9925 64.4014 46.9924 65.1699 46.9912 65.9385C46.9911 66.2207 46.9919 66.5029 46.9932 66.7852C46.9949 67.1701 46.9946 67.5554 46.9932 67.9404C46.9948 68.1086 46.9945 68.1087 46.9961 68.2803C46.9909 68.8966 46.9432 69.3011 46.543 69.8018C46.0962 70.0251 45.593 69.9564 45.1016 69.957C44.9799 69.9577 44.8578 69.9583 44.7325 69.959C44.3288 69.9609 43.9251 69.9612 43.5215 69.9619C43.2417 69.9627 42.9615 69.9641 42.6817 69.9648C42.0945 69.9662 41.5072 69.9673 40.92 69.9678C40.1668 69.9685 39.4134 69.9708 38.6602 69.9746C38.0821 69.9771 37.5039 69.9783 36.9258 69.9785C36.6482 69.9789 36.3704 69.9797 36.0928 69.9814C35.7045 69.9837 35.316 69.9833 34.9278 69.9824C34.8127 69.9837 34.6977 69.9851 34.5791 69.9863C34.1111 69.983 33.8016 69.9796 33.3838 69.7568C32.9306 69.2524 33.0316 68.6114 33.0323 67.9746C33.0319 67.8548 33.0307 67.7347 33.0303 67.6113C33.0291 67.2081 33.0295 66.8046 33.0293 66.4014C33.0287 66.1128 33.0281 65.8237 33.0274 65.5352C33.0256 64.7503 33.0241 63.9655 33.0235 63.1807C33.0231 62.6906 33.0231 62.2001 33.0225 61.71C33.0207 60.1777 33.0191 58.6455 33.0186 57.1133C33.018 55.3426 33.0156 53.5715 33.0118 51.8008C33.0089 50.4331 33.008 49.0649 33.0078 47.6973C33.0077 46.8802 33.0063 46.0632 33.0039 45.2461C33.0017 44.4775 33.0018 43.7081 33.003 42.9395C33.0031 42.6572 33.0023 42.375 33.001 42.0928C32.9993 41.7078 33.0006 41.3225 33.002 40.9375C33.0009 40.8255 32.9992 40.7131 32.9981 40.5977C33.0033 39.9815 33.051 39.5768 33.4512 39.0762C33.8981 38.8527 34.4021 38.9225 34.8936 38.9219C35.0151 38.9212 35.1366 38.9196 35.2618 38.9189C35.6654 38.917 36.0691 38.9168 36.4727 38.916C36.7526 38.9152 37.0327 38.9139 37.3125 38.9131C37.8998 38.9117 38.487 38.9116 39.0743 38.9111C39.8275 38.9104 40.5808 38.9071 41.334 38.9033C41.9121 38.9008 42.4903 38.8996 43.0684 38.8994C43.3461 38.899 43.6247 38.8982 43.9024 38.8965C44.2904 38.8942 44.6784 38.8946 45.0664 38.8955C45.2389 38.8937 45.2393 38.8935 45.4151 38.8916ZM31.0469 69.9365H22.0967C21.4957 69.1852 21.4952 69.1847 21.4942 68.4727C21.4919 68.2333 21.4916 68.2325 21.4893 67.9883C21.4904 67.8146 21.4921 67.6409 21.4932 67.4619C21.4925 67.2761 21.4914 67.0901 21.4903 66.9043C21.4878 66.4003 21.4886 65.8956 21.4903 65.3916C21.4916 64.864 21.4901 64.3362 21.4893 63.8086C21.4883 62.9225 21.4897 62.0365 21.4922 61.1504C21.4951 60.1262 21.4942 59.1014 21.4912 58.0771C21.4888 57.1974 21.4889 56.3173 21.4903 55.4375C21.4911 54.9124 21.4911 54.3874 21.4893 53.8623C21.4877 53.3685 21.4891 52.8746 21.4922 52.3809C21.4933 52.1135 21.491 51.8455 21.4893 51.5781C21.4908 51.4186 21.4926 51.2591 21.4942 51.0947C21.4945 50.8873 21.4948 50.8872 21.4952 50.6758C21.5624 50.2992 21.5624 50.2988 22.0967 49.6309H31.0469V69.9365ZM57.8975 49.6309C58.4986 50.3823 58.499 50.3823 58.5 51.0947C58.5015 51.2542 58.5034 51.4138 58.5049 51.5781C58.5038 51.7521 58.5021 51.9263 58.501 52.1055C58.5017 52.2913 58.5028 52.4772 58.5039 52.6631C58.5064 53.167 58.5056 53.6709 58.5039 54.1748C58.5026 54.7026 58.5041 55.231 58.5049 55.7588C58.5059 56.6449 58.5045 57.5309 58.502 58.417C58.4991 59.4411 58.5 60.4652 58.503 61.4893C58.5054 62.369 58.5053 63.2492 58.5039 64.1289C58.5031 64.6542 58.5032 65.1798 58.5049 65.7051C58.5065 66.1989 58.5051 66.6927 58.502 67.1865C58.5009 67.4538 58.5033 67.721 58.5049 67.9883C58.5027 68.2276 58.5023 68.2285 58.5 68.4727C58.4998 68.6109 58.4993 68.7492 58.4991 68.8916C58.4318 69.2682 58.4318 69.2686 57.8975 69.9365H48.9473V49.6309H57.8975ZM40.3682 10C40.8972 10.1583 41.0973 10.5718 41.3555 11.0371C41.5343 11.3808 41.7059 11.7281 41.876 12.0762C41.9312 12.1873 41.9861 12.2986 42.043 12.4131C42.1022 12.5328 42.1617 12.6531 42.2227 12.7764C42.2916 12.9095 42.3606 13.0426 42.4317 13.1797C42.6354 13.5947 42.7797 14.0183 42.9248 14.457C43.4215 15.9219 43.4209 15.9227 44.4893 16.9697C45.4929 17.3246 46.5404 17.3916 47.5948 17.4697C48.0642 17.5184 48.5331 17.5709 49.002 17.624C49.2921 17.6554 49.5832 17.683 49.8741 17.707C51.111 17.8146 51.1116 17.8147 51.6192 18.2373C51.8301 18.6591 51.8623 19.12 51.753 19.5732C51.5354 19.8007 51.3116 20.0228 51.085 20.2412C50.8614 20.4662 50.6376 20.6919 50.4141 20.917C50.222 21.11 50.0301 21.3031 49.8379 21.4961C49.7071 21.6275 49.5759 21.7589 49.4453 21.8906C48.7497 22.5923 48.052 23.2844 47.2979 23.9238C47.2252 23.987 47.1521 24.0502 47.0772 24.1152C47.0012 24.1771 46.925 24.239 46.8467 24.3027C46.652 24.5063 46.6522 24.5066 46.6524 24.7891C46.6657 24.8982 46.6787 25.0076 46.6924 25.1201C46.7161 25.3162 46.7161 25.3165 46.7403 25.5166C46.9035 26.6191 47.0883 27.7179 47.2764 28.8164C47.332 29.1422 47.3861 29.4689 47.4405 29.7949C47.4576 29.8928 47.4756 29.991 47.4932 30.0918C47.7709 31.7655 47.7703 31.7657 47.336 32.3975C46.8383 32.7363 46.6038 32.719 46.0088 32.665C45.6648 32.5236 45.3644 32.3816 45.043 32.2012C44.9536 32.153 44.8646 32.1043 44.7725 32.0547C44.4878 31.9008 44.2041 31.7446 43.9209 31.5879C43.7341 31.4863 43.5474 31.3845 43.3604 31.2832C43.1756 31.1828 42.9905 31.0828 42.8057 30.9824C42.715 30.9332 42.6237 30.8837 42.5303 30.833C42.0954 30.5959 41.6642 30.3546 41.2383 30.1016C41.0867 30.0137 40.9345 29.9255 40.7784 29.835C40.6463 29.7559 40.514 29.6771 40.378 29.5957C39.874 29.4153 39.6773 29.5078 39.1953 29.7266C38.903 29.8665 38.6133 30.0118 38.3262 30.1621C38.2452 30.2043 38.1636 30.2466 38.0801 30.29C37.8226 30.4242 37.5656 30.5593 37.3086 30.6943C36.6468 31.0405 35.9842 31.3855 35.3213 31.7295C35.1686 31.8089 35.0158 31.8889 34.8584 31.9707C34.7168 32.0432 34.5747 32.1158 34.4287 32.1904C34.3043 32.2544 34.18 32.3188 34.0518 32.3848C33.573 32.5963 33.2963 32.6381 32.7832 32.5312C32.3669 32.2573 32.2674 32.0785 32.1543 31.5938C32.1053 30.9323 32.2075 30.3601 32.336 29.7129C32.3599 29.5857 32.3836 29.4582 32.4082 29.3271C32.4844 28.9227 32.5632 28.5183 32.6416 28.1143C32.7193 27.7098 32.7967 27.3051 32.8731 26.9004C32.9206 26.6493 32.9685 26.3983 33.0176 26.1475C33.0786 25.8273 33.1317 25.5063 33.1836 25.1846C33.2245 24.9796 33.225 24.9787 33.2666 24.7695C33.1232 24.0969 32.5935 23.7207 32.1026 23.2656C31.8773 23.0485 31.652 22.8315 31.4268 22.6143C31.0699 22.2748 30.7124 21.9359 30.3535 21.5986C30.0074 21.2719 29.6644 20.9412 29.3223 20.6104C29.1603 20.4615 29.1602 20.4613 28.9951 20.3096C28.5095 19.8371 28.1743 19.4957 28.1319 18.7988C28.1762 18.392 28.2328 18.2483 28.4825 17.9111C29.101 17.6093 29.7091 17.5333 30.3877 17.4463C30.5308 17.4263 30.674 17.4063 30.8213 17.3857C31.2775 17.3225 31.7339 17.2623 32.1905 17.2021C32.4983 17.1597 32.8065 17.117 33.1143 17.0742C33.6773 16.9968 34.2403 16.92 34.8037 16.8457C34.9733 16.8232 34.9737 16.8227 35.1465 16.7998C35.4548 16.7679 35.455 16.7686 35.9893 16.7686C36.0211 16.6611 36.0532 16.5531 36.086 16.4424C36.2952 15.8591 36.5657 15.3229 36.8487 14.7725C36.9352 14.6031 36.9352 14.6025 37.0235 14.4297C37.1451 14.192 37.2665 13.9542 37.3887 13.7168C37.575 13.3544 37.7596 12.9911 37.9444 12.6279C38.063 12.3964 38.182 12.165 38.3008 11.9336C38.3556 11.8257 38.4104 11.7176 38.4668 11.6064C39.213 10.1638 39.2136 10.1632 39.7588 10C39.8593 10.0017 39.96 10.0031 40.0635 10.0049C40.164 10.0032 40.2647 10.0018 40.3682 10Z" fill="white"/>
</svg>
